<svg xmlns="http://www.w3.org/2000/svg" viewBox="0 0 16 16" shape-rendering="crispEdges">
  <rect width="16" height="16" rx="3" fill="#0a0d14"/>
  <g fill="#7bf06a">
    <!-- E  (x=2,y=1) -->
    <rect x="2" y="1" width="5" height="1"/>
    <rect x="2" y="2" width="1" height="1"/>
    <rect x="2" y="3" width="1" height="1"/>
    <rect x="2" y="4" width="4" height="1"/>
    <rect x="2" y="5" width="1" height="1"/>
    <rect x="2" y="6" width="1" height="1"/>
    <rect x="2" y="7" width="5" height="1"/>
    <!-- R  (x=9,y=1) -->
    <rect x="9" y="1" width="4" height="1"/>
    <rect x="9" y="2" width="1" height="1"/><rect x="13" y="2" width="1" height="1"/>
    <rect x="9" y="3" width="1" height="1"/><rect x="13" y="3" width="1" height="1"/>
    <rect x="9" y="4" width="4" height="1"/>
    <rect x="9" y="5" width="1" height="1"/><rect x="11" y="5" width="1" height="1"/>
    <rect x="9" y="6" width="1" height="1"/><rect x="12" y="6" width="1" height="1"/>
    <rect x="9" y="7" width="1" height="1"/><rect x="13" y="7" width="1" height="1"/>
    <!-- 4  (x=2,y=9) -->
    <rect x="5" y="9" width="1" height="1"/>
    <rect x="4" y="10" width="2" height="1"/>
    <rect x="3" y="11" width="1" height="1"/><rect x="5" y="11" width="1" height="1"/>
    <rect x="2" y="12" width="1" height="1"/><rect x="5" y="12" width="1" height="1"/>
    <rect x="2" y="13" width="5" height="1"/>
    <rect x="5" y="14" width="1" height="1"/>
    <rect x="5" y="15" width="1" height="1"/>
    <!-- 5  (x=9,y=9) -->
    <rect x="9" y="9" width="5" height="1"/>
    <rect x="9" y="10" width="1" height="1"/>
    <rect x="9" y="11" width="4" height="1"/>
    <rect x="13" y="12" width="1" height="1"/>
    <rect x="13" y="13" width="1" height="1"/>
    <rect x="9" y="14" width="1" height="1"/><rect x="13" y="14" width="1" height="1"/>
    <rect x="10" y="15" width="3" height="1"/>
  </g>
</svg>
